#!OML:ASF I:\Actors\actors\Patient Classification 1\Patient 1\Session 1\Subject1.ASF
:FULLY-SPECIFIED
:DEGREES
1183
root 0.941534 17.4691 9.2968 7.72594 -0.742105 -7.53547
lowerback -0.293993 1.01283 6.03075
upperback -5.88809 1.59375 1.07902
thorax -5.83964 0.518814 -2.32243
lowerneck -11.8847 -4.01911 -7.59365
upperneck 21.0036 -7.08286 13.3298
head 9.30472 -2.59069 5.06579
rclavicle 1.76421e-015 -4.37326e-014
rhumerus -61.9694 -24.3406 -60.6751
rradius 67.292
rwrist -0.995324
rhand -17.4327 -29.2487
rfingers 7.12502
rthumb 8.81779 -419.045
lclavicle 1.76421e-015 -4.37326e-014
lhumerus -60.4134 28.2892 59.7453
lradius 61.3912
lwrist 13.3086
lhand -26.9353 -18.6818
lfingers 7.12502
lthumb -0.357616 11.2976
rfemur -2.83854 24.0009 23.6698
rtibia 4.7179
rfoot -14.341 -26.55
rtoes 3.73595
lfemur 7.79041 -43.6809 -16.7478
ltibia -5.23629
lfoot -20.8405 51.9415
ltoes 12.807
1184
root 0.949258 17.4536 9.28454 8.2933 -1.11775 -7.70203
lowerback -0.638318 1.17029 6.2917
upperback -6.09343 1.79188 1.03697
thorax -5.83909 0.598854 -2.51357
lowerneck -11.7242 -4.01605 -7.60233
upperneck 20.8042 -7.08765 13.4402
head 9.21052 -2.59355 5.10143
rclavicle 1.61513e-015 3.02153e-014
rhumerus -61.4688 -24.5913 -61.109
rradius 64.5065
rwrist 0.135899
rhand -17.463 -29.5547
rfingers 7.12502
rthumb 8.78855 -419.352
lclavicle 1.61513e-015 3.02153e-014
lhumerus -60.3958 28.8803 59.1231
lradius 59.0466
lwrist 12.5183
lhand -26.4884 -17.6581
lfingers 7.12502
lthumb 0.0740319 12.3216
rfemur -3.8729 23.597 23.3857
rtibia 5.04135
rfoot -14.1276 -25.7671
rtoes 3.26041
lfemur 6.95174 -43.7687 -16.102
ltibia -5.06275
lfoot -21.6178 52.2604
ltoes 13.6506
1185
root 0.94371 17.4534 9.28423 8.374 -1.15629 -7.7395
lowerback -0.692909 1.15326 6.21677
upperback -6.14075 1.76522 1.04536
thorax -5.8621 0.58808 -2.46122
lowerneck -11.6687 -3.97193 -7.53542
upperneck 20.7428 -7.04022 13.4629
head 9.17148 -2.56748 5.10226
rclavicle -2.03257e-014 -6.36111e-015
rhumerus -60.9526 -24.8077 -61.432
rradius 61.3606
rwrist 1.27698
rhand -17.7213 -28.368
rfingers 7.12502
rthumb 8.53932 -418.175
lclavicle -2.03257e-014 -6.36111e-015
lhumerus -60.4507 29.6352 58.3665
lradius 56.6501
lwrist 11.3365
lhand -25.3927 -20.6782
lfingers 7.12502
lthumb 1.13232 9.29853
rfemur -3.94973 23.7014 23.4087
rtibia 4.99593
rfoot -14.09 -25.8138
rtoes 3.42307
lfemur 6.79846 -43.7366 -15.9204
ltibia -5.03445
lfoot -21.5909 52.2443
ltoes 13.4596
1186
root 0.927411 17.468 9.29929 7.92809 -0.758471 -7.60431
lowerback -0.48843 0.958451 5.85881
upperback -6.00828 1.50551 1.06328
thorax -5.86528 0.480361 -2.23623
lowerneck -11.3723 -3.96534 -7.14026
upperneck 20.4474 -7.01407 13.1243
head 8.98364 -2.57522 4.90857
rclavicle 1.19768e-014 -5.96354e-015
rhumerus -60.4699 -25.0823 -61.6739
rradius 58.4403
rwrist 3.14046
rhand -17.0939 -27.9484
rfingers 7.12502
rthumb 9.14469 -417.73
lclavicle 1.19768e-014 -5.96354e-015
lhumerus -60.502 30.4762 57.5468
lradius 54.2331
lwrist 10.0116
lhand -25.8429 -19.3108
lfingers 7.12502
lthumb 0.697448 10.6678
rfemur -2.95115 24.3262 23.7323
rtibia 4.52664
rfoot -14.3494 -26.8117
rtoes 4.02781
lfemur 7.37564 -43.6051 -16.3037
ltibia -5.14475
lfoot -20.792 51.8427
ltoes 12.5148
1187
root 0.920287 17.4724 9.30801 7.79309 -0.662033 -7.5298
lowerback -0.486153 0.917424 5.71972
upperback -5.97404 1.44345 1.02487
thorax -5.83563 0.456965 -2.19601
lowerneck -10.8472 -3.97485 -6.37712
upperneck 19.9122 -6.96128 12.3299
head 8.64005 -2.59985 4.49285
rclavicle 1.28962e-014 -2.38542e-014
rhumerus -60.056 -25.5216 -61.7832
rradius 55.3639
rwrist 5.5991
rhand -16.6729 -26.9747
rfingers 7.12502
rthumb 9.55094 -416.738
lclavicle 1.28962e-014 -2.38542e-014
lhumerus -60.5533 31.396 56.6061
lradius 51.8308
lwrist 8.55922
lhand -25.7019 -19.203
lfingers 7.12502
lthumb 0.833647 10.7751
rfemur -2.57692 24.6126 23.8231
rtibia 4.31219
rfoot -14.4943 -27.1763
rtoes 4.21789
lfemur 7.60141 -43.6035 -16.4965
ltibia -5.18747
lfoot -20.4951 51.7963
ltoes 12.1789
